<svg width="13" height="13" viewBox="0 0 13 13" xmlns="http://www.w3.org/2000/svg">
<path d="M2 1.25C1.58579 1.25 1.25 1.58579 1.25 2V11C1.25 11.4142 1.58579 11.75 2 11.75H11C11.4142 11.75 11.75 11.4142 11.75 11V2C11.75 1.58579 11.4142 1.25 11 1.25H7.625C7.21079 1.25 6.875 1.58579 6.875 2V7.46967L8.85983 5.48484C9.00628 5.33839 9.24372 5.33839 9.39017 5.48484C9.53661 5.63128 9.53661 5.86872 9.39017 6.01516L6.76517 8.64017C6.61872 8.78661 6.38128 8.78661 6.23484 8.64017L3.60984 6.01516C3.46339 5.86872 3.46339 5.63128 3.60984 5.48484C3.75628 5.33839 3.99372 5.33839 4.14016 5.48484L6.125 7.46967V2C6.125 1.17157 6.79657 0.5 7.625 0.5H11C11.8284 0.5 12.5 1.17157 12.5 2V11C12.5 11.8284 11.8284 12.5 11 12.5H2C1.17157 12.5 0.5 11.8284 0.5 11V2C0.5 1.17157 1.17157 0.5 2 0.5H3.875C4.08211 0.5 4.25 0.667893 4.25 0.875C4.25 1.08211 4.08211 1.25 3.875 1.25H2Z" fill="currentColor" stroke="currentColor" stroke-linecap="round" stroke-linejoin="round"/>
</svg>
